<svg xmlns="http://www.w3.org/2000/svg" width="32" height="32" fill="none" viewBox="0 0 32 32">
    <path fill="#fff" d="M20.8 16c0 1.273-.506 2.494-1.406 3.394-.9.9-2.121 1.406-3.394 1.406-1.273 0-2.494-.506-3.394-1.406-.9-.9-1.406-2.12-1.406-3.394 0-.274.029-.54.078-.8H9.6v6.395c0 .445.36.805.805.805h11.192c.213 0 .417-.085.568-.236.15-.151.235-.356.235-.569V15.2h-1.678c.05.26.078.527.078.8zM16 19.2c.42 0 .837-.083 1.225-.244.388-.16.74-.397 1.038-.694.297-.297.533-.65.694-1.038.16-.389.243-.805.243-1.226 0-.42-.083-.836-.244-1.224-.16-.389-.397-.741-.694-1.038-.297-.298-.65-.533-1.039-.694-.388-.16-.804-.244-1.225-.243-.848 0-1.663.337-2.263.938-.6.6-.937 1.414-.937 2.263s.338 1.663.938 2.263c.6.6 1.415.937 2.264.937zm3.84-6.56h1.918c.128 0 .25-.05.34-.14.09-.09.142-.212.142-.34v-1.918c0-.128-.05-.25-.141-.34-.09-.091-.213-.142-.34-.142H19.84c-.128 0-.25.05-.34.141-.09.09-.142.213-.142.34v1.92c.002.263.218.48.482.48zM16 .64C11.926.64 8.02 2.258 5.139 5.14 2.259 8.019.64 11.926.64 16c0 4.074 1.618 7.98 4.499 10.861 2.88 2.88 6.787 4.5 10.861 4.5 2.017 0 4.015-.398 5.878-1.17 1.864-.772 3.557-1.903 4.983-3.33 1.427-1.426 2.558-3.12 3.33-4.983.772-1.863 1.169-3.86 1.169-5.878 0-2.017-.397-4.014-1.17-5.878-.771-1.863-1.902-3.557-3.329-4.983-1.426-1.426-3.12-2.558-4.983-3.33C20.015 1.037 18.018.64 16 .64zm8 21.582C24 23.2 23.2 24 22.222 24H9.778C8.8 24 8 23.2 8 22.223V9.777C8 8.8 8.8 8 9.778 8h12.444C23.2 8 24 8.8 24 9.778v12.444z"/>
</svg>
