<svg xmlns="http://www.w3.org/2000/svg" width="32" height="32" fill="none" viewBox="0 0 32 32">
    <path fill="#fff" d="M16 .64C7.517.64.64 7.517.64 16S7.517 31.36 16 31.36 31.36 24.483 31.36 16 24.483.64 16 .64zm4.123 21.986c-.545.269-1.117.48-1.705.632-.542.123-1.095.183-1.65.18-.672 0-1.266-.087-1.782-.259-.486-.153-.935-.403-1.322-.734-.331-.271-.591-.619-.758-1.013-.141-.36-.212-.878-.212-1.557v-5.219H11.07v-2.102c.574-.19 1.072-.463 1.483-.82.411-.353.742-.777.99-1.275.25-.496.421-1.13.516-1.896h2.09v3.76h3.489v2.333h-3.488v3.816c0 .862.045 1.416.136 1.66.093.249.271.457.504.586.326.197.699.297 1.115.297.746 0 1.485-.247 2.22-.738v2.349z"/>
</svg>
