<svg xmlns="http://www.w3.org/2000/svg" width="32" height="32" fill="none" viewBox="0 0 32 32">
    <path fill="#fff" d="M16 .64C7.517.64.64 7.517.64 16S7.517 31.36 16 31.36 31.36 24.483 31.36 16 24.483.64 16 .64zm6.248 12.583c.006.13.008.262.008.39 0 4-3.042 8.61-8.606 8.61-1.645.002-3.255-.47-4.637-1.36.235.028.477.04.721.04 1.418 0 2.722-.482 3.757-1.295-.63-.012-1.242-.221-1.748-.597-.507-.377-.883-.902-1.077-1.502.453.086.92.068 1.364-.053-.684-.138-1.3-.51-1.742-1.05-.443-.54-.685-1.218-.685-1.916v-.037c.408.226.875.363 1.371.38-.642-.428-1.096-1.085-1.27-1.836-.174-.751-.054-1.54.334-2.207.76.935 1.708 1.7 2.782 2.244 1.074.545 2.25.858 3.454.92-.153-.65-.088-1.33.187-1.939.274-.607.742-1.108 1.33-1.422.587-.315 1.263-.427 1.92-.318.659.108 1.262.432 1.718.919.677-.134 1.326-.383 1.92-.735-.226.701-.698 1.297-1.33 1.675.6-.072 1.186-.233 1.738-.478-.406.608-.917 1.138-1.509 1.566z"/>
</svg>
